<?xml version="1.0" encoding="utf-8"?>
<!-- Generator: Adobe Illustrator 24.0.2, SVG Export Plug-In . SVG Version: 6.00 Build 0)  -->
<svg version="1.1" id="Layer_1" xmlns="http://www.w3.org/2000/svg" xmlns:xlink="http://www.w3.org/1999/xlink" x="0px" y="0px"
	 viewBox="0 0 638.46 169.421" style="enable-background:new 0 0 638.46 169.421;" xml:space="preserve">
<style type="text/css">
	.st0{fill:#7AB943;}
	.st1{fill:#A6A8AB;}
	.st2{fill:#39B2D1;}
</style>
<g>
	<path class="st0" d="M52.593,84.842c-1.824,0-3.409,0.768-4.609,1.824c-1.104,1.296-1.728,3.025-1.728,4.993
		c0,2.064,0.624,3.744,1.728,5.089c1.2,1.152,2.785,1.776,4.609,1.776c1.68,0,3.216-0.624,4.416-1.776
		c1.2-1.344,1.872-3.024,1.872-5.089c0-1.968-0.672-3.697-1.872-4.993C55.809,85.609,54.273,84.842,52.593,84.842z"/>
	<path class="st0" d="M59.218,46.436c-1.776,0-3.361,0.672-4.561,1.968c-1.248,1.248-1.872,2.976-1.872,4.849
		s0.624,3.697,1.872,4.801c1.2,1.344,2.784,2.016,4.561,2.016c1.632,0,3.264-0.672,4.512-2.016c1.105-1.104,1.873-2.929,1.873-4.801
		s-0.768-3.6-1.873-4.849C62.482,47.108,60.85,46.436,59.218,46.436z"/>
	<path class="st0" d="M158.742,2.938C156.783,0.98,154.429,0,151.678,0H10.002c-2.75,0-5.106,0.98-7.064,2.938
		C0.979,4.897,0,7.251,0,10.001v128.398c0,2.75,0.979,5.106,2.938,7.064c1.957,1.959,4.313,2.938,7.064,2.938h104.171l19.628,19.378
		c1.5,1.417,2.75,1.917,3.751,1.5c1-0.417,1.5-1.668,1.5-3.75l-0.625-17.128h13.252c2.75,0,5.104-0.979,7.064-2.938
		c1.957-1.958,2.938-4.313,2.938-7.064V10.001C161.68,7.251,160.699,4.897,158.742,2.938z M76.246,34.242c0-1.44,1.2-2.64,2.64-2.64
		c1.488,0,2.688,1.2,2.688,2.64v28.323c0,1.44-1.2,2.64-2.688,2.64c-1.44,0-2.64-1.2-2.64-2.64V34.242z M35.51,78.697
		c1.44,0,2.64,1.152,2.64,2.64c0,1.44-1.2,2.64-2.64,2.64h-1.44v16.946c0,1.44-1.152,2.64-2.64,2.64s-2.64-1.2-2.64-2.64V83.977
		H27.54c-1.488,0-2.688-1.2-2.688-2.64c0-1.488,1.2-2.64,2.688-2.64h1.248v-0.672c0-1.776,0.192-3.312,0.912-4.705
		c0.672-1.44,2.017-2.544,3.457-2.976c0.96-0.288,1.872-0.384,2.88-0.384c1.44,0,2.64,1.2,2.64,2.64c0,1.488-1.2,2.688-2.64,2.688
		c-0.624,0-1.056,0.048-1.248,0.144c-0.192,0.048-0.24,0.096-0.288,0.144c-0.048,0-0.432,0.672-0.432,2.448v0.672H35.51z
		 M60.609,100.107c-1.968,2.256-4.849,3.648-8.017,3.648c-3.312,0-6.097-1.392-8.257-3.648c-2.065-2.112-3.312-5.089-3.312-8.449
		c0-3.264,1.248-6.097,3.312-8.401c2.16-2.256,4.944-3.648,8.257-3.648c3.168,0,6.048,1.392,8.017,3.648
		c2.16,2.304,3.36,5.137,3.36,8.401C63.97,95.019,62.77,97.995,60.609,100.107z M59.218,65.158c-2.4,0-4.705-0.72-6.433-1.968v8.449
		c0,1.344-1.2,2.592-2.737,2.592c-1.392,0-2.544-1.248-2.544-2.592V53.301c0,0,0,0,0-0.048v-9.505c0-1.392,1.152-2.544,2.544-2.544
		c1.345,0,2.448,0.912,2.64,1.968c1.777-1.152,4.081-1.968,6.529-1.968c6.385,0,11.617,5.473,11.617,12.049
		C70.835,59.829,65.603,65.158,59.218,65.158z M83.173,84.698c-1.104,0-2.064,0.288-2.88,0.912
		c-0.913,0.576-1.633,1.392-2.208,2.304c-1.152,1.536-1.728,3.36-1.968,4.032v9.121c0,1.392-1.2,2.544-2.64,2.544
		c-1.392,0-2.544-1.152-2.544-2.544V82.153c0-1.392,1.152-2.496,2.544-2.496c1.44,0,2.64,1.104,2.64,2.496v0.336
		c0.288-0.336,0.672-0.72,1.008-0.96c1.584-1.056,3.648-1.92,6.048-1.872c1.44,0,2.545,1.104,2.545,2.496
		C85.718,83.497,84.613,84.698,83.173,84.698z M86.198,53.252c0-3.312,1.2-6.289,3.264-8.449c2.064-2.208,4.896-3.601,8.161-3.601
		c2.4,0,4.56,0.816,6.385,2.112c0.288-1.2,1.248-2.112,2.496-2.112c1.392,0,2.544,1.152,2.544,2.592v9.457v9.409
		c0,1.392-1.152,2.544-2.544,2.544c-1.248,0-2.208-0.912-2.496-2.064c-1.825,1.296-3.985,2.064-6.385,2.064
		c-3.265,0-6.097-1.344-8.161-3.504C87.398,59.493,86.198,56.517,86.198,53.252z M125.85,101.067c0,1.392-1.152,2.544-2.544,2.544
		c-1.393,0-2.592-1.152-2.592-2.544V89.69c0-2.736-2.208-4.944-4.849-4.944c-2.736,0-4.896,2.16-4.993,4.8c0,0.048,0,0.096,0,0.144
		v11.377c0,1.392-1.152,2.544-2.544,2.544c-1.344,0-2.592-1.152-2.592-2.544V89.69c0-0.048,0-0.096,0-0.144
		c-0.048-2.641-2.257-4.8-4.944-4.8c-2.64,0-4.849,2.208-4.849,4.944v11.377c0,0.096-0.047,0.24-0.047,0.336
		c0,0.048,0,0.144,0,0.144c-0.048,0.096-0.048,0.192-0.144,0.288c0,0.048,0,0.144,0,0.24c-0.432,0.864-1.392,1.536-2.4,1.536
		c-0.192,0-0.336-0.048-0.48-0.048c-1.152-0.288-2.064-1.248-2.064-2.496V89.69c0-0.048,0-0.048,0-0.048v-7.441
		c0-1.488,1.152-2.592,2.544-2.592c1.008,0,1.92,0.528,2.305,1.44c1.536-0.912,3.312-1.44,5.136-1.44
		c3.024,0,5.713,1.248,7.537,3.312c1.776-2.064,4.513-3.312,7.537-3.312c5.521,0,9.985,4.513,9.985,10.081V101.067z M125.37,46.484
		h-1.2v13.394c1.488,0,2.64,1.2,2.64,2.688c0,1.488-1.152,2.64-2.64,2.64c-2.929,0-5.329-2.4-5.329-5.329V46.484h-1.392
		c-1.488,0-2.64-1.2-2.64-2.64c0-1.488,1.153-2.64,2.64-2.64h1.392v-6.961c0-1.488,1.2-2.64,2.689-2.64s2.64,1.152,2.64,2.64v6.961
		h1.2c1.44,0,2.688,1.152,2.688,2.64C128.058,45.284,126.811,46.484,125.37,46.484z"/>
	<path class="st0" d="M102.088,58.197c1.152-1.248,1.872-2.977,1.872-4.945c0-2.016-0.72-3.744-1.872-4.945
		c-1.152-1.296-2.785-1.968-4.464-1.968c-1.728,0-3.361,0.672-4.465,1.968c-1.152,1.2-1.824,2.928-1.824,4.945
		c0,1.968,0.672,3.697,1.824,4.945c1.105,1.2,2.737,1.872,4.465,1.872C99.303,60.069,100.935,59.397,102.088,58.197z"/>
</g>
<g>
	<path class="st1" d="M507.884,106.149c-1.268,0-2.429,0.528-3.309,1.443c-0.88,0.88-1.408,2.147-1.408,3.555
		c0,1.338,0.528,2.605,1.408,3.485c0.88,0.915,2.042,1.443,3.309,1.443c1.302,0,2.428-0.528,3.308-1.443
		c0.88-0.88,1.409-2.147,1.409-3.485c0-1.408-0.529-2.675-1.409-3.555C510.312,106.677,509.185,106.149,507.884,106.149z"/>
	<path class="st1" d="M449.831,106.149c-1.268,0-2.429,0.528-3.309,1.443c-0.88,0.88-1.408,2.147-1.408,3.555
		c0,1.338,0.528,2.605,1.408,3.485c0.88,0.915,2.042,1.443,3.309,1.443c1.302,0,2.428-0.528,3.309-1.443
		c0.88-0.88,1.408-2.147,1.408-3.485c0-1.408-0.528-2.675-1.408-3.555C452.259,106.677,451.133,106.149,449.831,106.149z"/>
	<path class="st1" d="M544.778,105.656c-2.992,0.141-4.471,2.289-4.752,3.732h9.961
		C549.635,107.979,547.841,105.903,544.778,105.656z"/>
	<path class="st1" d="M472.467,106.149c-1.338,0-2.499,0.563-3.379,1.338c-0.809,0.95-1.267,2.217-1.267,3.66
		c0,1.514,0.458,2.746,1.267,3.731c0.88,0.845,2.042,1.303,3.379,1.303c1.232,0,2.358-0.458,3.239-1.303
		c0.88-0.985,1.373-2.217,1.373-3.731c0-1.443-0.493-2.71-1.373-3.66C474.826,106.712,473.699,106.149,472.467,106.149z"/>
	<path class="st1" d="M635.522,72.881c-1.957-1.959-4.313-2.938-7.064-2.938H456.041l-19.628-19.378
		c-1.5-1.417-2.75-1.917-3.751-1.5c-1,0.417-1.5,1.668-1.5,3.75l0.625,17.128h-13.252c-2.75,0-5.105,0.979-7.064,2.938
		c-1.957,1.958-2.938,4.313-2.938,7.064v58.705c0,2.75,0.981,5.104,2.938,7.064c1.959,1.958,4.313,2.938,7.064,2.938h209.923
		c2.75,0,5.106-0.98,7.064-2.938c1.959-1.959,2.938-4.313,2.938-7.064V79.945C638.46,77.194,637.481,74.839,635.522,72.881z
		 M458.384,111.112c0,0,0,0,0,0.035v6.864c0,1.021-0.845,1.901-1.901,1.901c-0.951,0-1.69-0.669-1.866-1.513
		c-1.338,0.915-3.027,1.513-4.787,1.513c-4.752,0-8.554-4.013-8.554-8.765c0-4.823,3.802-8.835,8.554-8.835
		c1.725,0,3.414,0.563,4.717,1.478v-6.618c0-1.021,0.844-1.901,1.936-1.901c1.056,0,1.901,0.88,1.901,1.901V111.112z
		 M478.346,117.343c-1.443,1.655-3.555,2.676-5.878,2.676c-2.428,0-4.47-1.021-6.055-2.676c-1.513-1.549-2.429-3.731-2.429-6.195
		c0-2.393,0.915-4.47,2.429-6.16c1.585-1.654,3.626-2.675,6.055-2.675c2.323,0,4.436,1.021,5.878,2.675
		c1.584,1.69,2.464,3.767,2.464,6.16C480.81,113.611,479.93,115.794,478.346,117.343z M494.893,106.044
		c-0.809,0-1.514,0.211-2.112,0.669c-0.669,0.423-1.197,1.021-1.619,1.69c-0.845,1.126-1.268,2.464-1.443,2.957v6.688
		c0,1.021-0.88,1.866-1.936,1.866c-1.021,0-1.866-0.844-1.866-1.866v-13.869c0-1.021,0.845-1.83,1.866-1.83
		c1.056,0,1.936,0.81,1.936,1.83v0.247c0.211-0.247,0.493-0.528,0.739-0.704c1.162-0.775,2.675-1.408,4.436-1.373
		c1.056,0,1.865,0.81,1.865,1.83C496.758,105.163,495.949,106.044,494.893,106.044z M516.438,111.112c0,0,0,0,0,0.035v6.864
		c0,1.021-0.845,1.901-1.902,1.901c-0.95,0-1.689-0.669-1.865-1.513c-1.338,0.915-3.028,1.513-4.787,1.513
		c-4.753,0-8.554-4.013-8.554-8.765c0-4.823,3.801-8.835,8.554-8.835c1.724,0,3.415,0.563,4.717,1.478v-6.618
		c0-1.021,0.844-1.901,1.935-1.901c1.056,0,1.902,0.88,1.902,1.901V111.112z M531.823,106.044c-0.81,0-1.514,0.211-2.113,0.669
		c-0.669,0.423-1.196,1.021-1.619,1.69c-0.845,1.126-1.268,2.464-1.443,2.957v6.688c0,1.021-0.88,1.866-1.937,1.866
		c-1.02,0-1.865-0.844-1.865-1.866v-13.869c0-1.021,0.845-1.83,1.865-1.83c1.056,0,1.937,0.81,1.937,1.83v0.247
		c0.211-0.247,0.493-0.528,0.739-0.704c1.161-0.775,2.675-1.408,4.436-1.373c1.055,0,1.865,0.81,1.865,1.83
		C533.688,105.163,532.878,106.044,531.823,106.044z M553.262,110.655c0,0.07,0,0.246-0.036,0.317
		c-0.105,0.844-0.844,1.408-1.83,1.408h-11.193c0.175,0.809,0.563,1.725,1.196,2.323c0.739,0.844,2.147,1.478,3.379,1.584
		c1.268,0.106,2.78-0.211,3.661-0.88c0.739-0.775,2.183-0.669,2.64-0.106c0.458,0.493,0.809,1.549,0,2.288
		c-1.725,1.584-3.802,2.323-6.301,2.323c-4.822-0.035-8.554-4.013-8.589-8.8c0.035-4.788,3.767-8.8,8.589-8.8
		c4.576,0,8.201,3.414,8.484,8.166C553.262,110.514,553.262,110.584,553.262,110.655z M565.689,116.181
		c1.268,0,2.429-0.458,3.344-1.126c0.775-0.598,1.937-0.458,2.64,0.387c0.564,0.775,0.423,1.901-0.388,2.605
		c-1.513,1.092-3.484,1.866-5.597,1.866c-4.857,0-8.94-3.943-8.94-8.765c0-4.893,4.083-8.8,8.94-8.835
		c2.113,0,4.084,0.774,5.597,1.936c0.81,0.634,0.951,1.83,0.388,2.605c-0.704,0.845-1.83,0.986-2.64,0.352
		c-0.915-0.669-2.042-1.126-3.344-1.126c-2.85,0-5.21,2.359-5.21,5.069C560.479,113.858,562.839,116.181,565.689,116.181z
		 M592.55,117.977c0,1.091-0.845,1.936-1.937,1.936c-1.091,0-1.935-0.844-1.935-1.936v-7.956c0-2.077-1.69-3.766-3.802-3.802
		c-2.077,0.036-3.732,1.725-3.767,3.802v7.956c0,1.091-0.88,1.936-1.971,1.936c-0.88,0-1.619-0.634-1.865-1.443
		c-0.035-0.141-0.07-0.317-0.07-0.493V97.208c0-1.091,0.88-1.936,1.935-1.936c1.091,0,1.971,0.845,1.971,1.936v6.125
		c1.126-0.599,2.394-1.021,3.767-1.021c4.259,0,7.674,3.485,7.674,7.709V117.977z M603.852,106.184h-0.88v9.821
		c1.091,0,1.935,0.88,1.935,1.972s-0.844,1.936-1.935,1.936c-2.148,0-3.908-1.76-3.908-3.907v-9.821h-1.02
		c-1.091,0-1.937-0.88-1.937-1.936c0-1.091,0.845-1.936,1.937-1.936h1.02v-5.104c0-1.091,0.88-1.936,1.971-1.936
		c1.091,0,1.937,0.845,1.937,1.936v5.104h0.88c1.055,0,1.97,0.844,1.97,1.936C605.822,105.304,604.907,106.184,603.852,106.184z"/>
</g>
<g>
	<path class="st2" d="M260.533,57.958c1.211-1.211,1.937-2.954,1.937-4.795c0-1.937-0.727-3.68-1.937-4.891
		c-1.211-1.259-2.76-1.986-4.553-1.986c-1.743,0-3.342,0.727-4.552,1.986c-1.211,1.211-1.937,2.954-1.937,4.891
		c0,1.841,0.727,3.584,1.937,4.795c1.21,1.259,2.809,1.986,4.552,1.986C257.772,59.944,259.322,59.218,260.533,57.958z"/>
	<path class="st2" d="M288.914,84.937c-1.744,0-3.39,0.678-4.505,1.985c-1.162,1.211-1.84,2.954-1.84,4.988
		c0,1.986,0.678,3.73,1.84,4.988c1.114,1.211,2.761,1.889,4.505,1.889c1.695,0,3.342-0.678,4.504-1.889
		c1.162-1.259,1.889-3.002,1.889-4.988c0-2.034-0.727-3.778-1.889-4.988C292.256,85.615,290.609,84.937,288.914,84.937z"/>
	<path class="st2" d="M375.596,2.938C373.639,0.98,371.283,0,368.533,0H203.039c-2.75,0-5.104,0.98-7.064,2.938
		c-1.957,1.959-2.938,4.313-2.938,7.063V138.32c0,2.75,0.981,5.106,2.938,7.063c1.959,1.959,4.313,2.938,7.064,2.938h13.252
		l-0.625,17.128c0,2.083,0.5,3.333,1.5,3.751c1,0.416,2.25-0.084,3.751-1.5l19.628-19.378h127.988c2.75,0,5.106-0.979,7.064-2.938
		c1.959-1.958,2.938-4.313,2.938-7.063V10.001C378.534,7.251,377.555,4.897,375.596,2.938z M243.145,82.369
		c-0.048,0.097-0.048,0.242-0.048,0.242c0,0.146,0,0.194-0.049,0.291c0,0.049,0,0.146-0.049,0.242c0,0.097-0.049,0.194-0.145,0.242
		c0,0,0,0.048,0,0.145c-0.097,0.097-0.146,0.194-0.242,0.242c0,0,0,0,0,0.048l-10.945,15.014h8.911c1.356,0,2.567,1.114,2.567,2.567
		c0,1.404-1.211,2.567-2.567,2.567h-13.997c-0.146,0-0.291,0-0.484-0.049c-0.049,0-0.097,0-0.146,0
		c-0.096-0.049-0.194-0.097-0.29-0.097c-0.097-0.048-0.146-0.048-0.194-0.096c-0.049,0-0.146-0.097-0.194-0.097
		c-0.048-0.096-0.096-0.096-0.096-0.145c-0.049,0-0.049,0-0.049-0.049c-0.049,0-0.097-0.049-0.145-0.097
		c-0.049-0.048-0.194-0.145-0.194-0.145c-0.096-0.145-0.145-0.194-0.194-0.242c-0.049-0.097-0.096-0.145-0.145-0.194
		c-0.097-0.049-0.097-0.097-0.097-0.194c-0.096-0.049-0.145-0.097-0.145-0.242c-0.049,0-0.049-0.097-0.097-0.242
		c0-0.049-0.049-0.146-0.049-0.194c0-0.097,0-0.242,0-0.339c-0.048-0.049-0.048-0.097-0.048-0.145c0,0,0,0,0-0.048
		c0-0.097,0.048-0.242,0.048-0.339c0-0.049,0-0.096,0-0.194c0.049-0.049,0.049-0.145,0.097-0.242c0-0.097,0.049-0.194,0.049-0.242
		c0.049,0,0.145-0.145,0.145-0.145c0-0.097,0.097-0.194,0.146-0.242c0.048,0,0.048,0,0.048,0l10.898-15.062h-8.863
		c-1.356,0-2.567-1.114-2.567-2.567c0-1.405,1.211-2.567,2.567-2.567h13.997c0.097,0,0.194,0.048,0.291,0.048
		c0.145,0,0.145,0,0.242,0c0.096,0.049,0.194,0.049,0.242,0.097c0.096,0,0.194,0.049,0.242,0.049
		c0.049,0.048,0.096,0.145,0.145,0.145c0.097,0,0.194,0.096,0.291,0.145c0.049,0,0.049,0.049,0.049,0.049
		c0.049,0,0.096,0.048,0.096,0.097c0.049,0.048,0.146,0.097,0.242,0.242c0.049,0,0.097,0.096,0.146,0.145
		c0.049,0.097,0.096,0.145,0.145,0.194s0.049,0.097,0.146,0.097c0,0.145,0.096,0.194,0.096,0.291C243,81.401,243,81.498,243,81.595
		c0.049,0.096,0.049,0.194,0.097,0.242c0,0.096,0,0.194,0,0.29c0,0.049,0.048,0.146,0.048,0.194V82.369z M244.211,53.164
		c0-6.635,5.231-12.156,11.768-12.156c2.374,0,4.698,0.775,6.49,2.034v-9.105c0-1.405,1.162-2.615,2.664-2.615
		c1.453,0,2.615,1.211,2.615,2.615v19.179c0,0,0,0,0,0.048v9.445c0,1.404-1.162,2.615-2.615,2.615c-1.307,0-2.325-0.92-2.567-2.083
		c-1.84,1.259-4.165,2.083-6.587,2.083C249.442,65.223,244.211,59.702,244.211,53.164z M271.672,91.91v9.493
		c0,1.404-1.162,2.567-2.567,2.567c-1.259,0-2.228-0.92-2.518-2.083c-1.841,1.308-4.02,2.083-6.441,2.083
		c-3.294,0-6.151-1.357-8.234-3.535c-2.082-2.228-3.293-5.231-3.293-8.524c0-3.342,1.211-6.344,3.293-8.524
		c2.082-2.228,4.94-3.632,8.234-3.632c2.421,0,4.601,0.823,6.441,2.131c0.29-1.211,1.259-2.131,2.518-2.131
		c1.404,0,2.567,1.162,2.567,2.615V91.91z M276.08,43.575c0-1.357,1.162-2.567,2.567-2.567c1.453,0,2.567,1.211,2.567,2.567v11.575
		c0,2.76,2.179,4.94,4.94,4.94c2.809,0,5.037-2.18,5.086-4.94V43.575c0-1.357,1.065-2.567,2.518-2.567
		c1.356,0,2.615,1.211,2.615,2.567v11.575c0,5.521-4.649,10.074-10.219,10.074c-5.521,0-10.074-4.553-10.074-10.074V43.575z
		 M300.44,91.91v9.493c0,1.404-1.162,2.567-2.567,2.567c-1.259,0-2.228-0.92-2.518-2.083c-1.841,1.308-4.02,2.083-6.441,2.083
		c-3.294,0-6.151-1.357-8.234-3.535c-2.082-2.228-3.293-5.231-3.293-8.524c0-3.342,1.211-6.344,3.293-8.524
		c2.082-2.228,4.94-3.632,8.234-3.632c2.421,0,4.601,0.823,6.441,2.131c0.29-1.211,1.259-2.131,2.518-2.131
		c1.404,0,2.567,1.162,2.567,2.615V91.91z M304.558,55.149V43.575c0-1.357,1.162-2.567,2.567-2.567c1.453,0,2.567,1.211,2.567,2.567
		v11.575c0,2.76,2.179,4.94,4.94,4.94c2.809,0,5.037-2.18,5.086-4.94V43.575c0-1.357,1.065-2.567,2.518-2.567
		c1.356,0,2.615,1.211,2.615,2.567v11.575c0,5.521-4.649,10.074-10.219,10.074C309.111,65.223,304.558,60.671,304.558,55.149z
		 M344.078,101.403c0,1.404-1.162,2.567-2.567,2.567c-1.405,0-2.615-1.162-2.615-2.567V89.925c0-2.761-2.228-4.988-4.892-4.988
		c-2.76,0-4.94,2.179-5.037,4.843c0,0.049,0,0.097,0,0.146v11.478c0,1.404-1.162,2.567-2.567,2.567
		c-1.356,0-2.615-1.162-2.615-2.567V89.925c0-0.049,0-0.097,0-0.146c-0.049-2.664-2.277-4.843-4.988-4.843
		c-2.664,0-4.892,2.227-4.892,4.988v11.478c0,0.097-0.048,0.242-0.048,0.339c0,0.048,0,0.145,0,0.145
		c-0.049,0.097-0.049,0.194-0.146,0.291c0,0.048,0,0.146,0,0.242c-0.436,0.872-1.404,1.55-2.422,1.55
		c-0.194,0-0.339-0.049-0.484-0.049c-1.162-0.291-2.082-1.259-2.082-2.518V89.925c0-0.049,0-0.049,0-0.049v-7.507
		c0-1.501,1.162-2.615,2.567-2.615c1.017,0,1.937,0.533,2.325,1.453c1.549-0.92,3.342-1.453,5.182-1.453
		c3.051,0,5.763,1.259,7.604,3.342c1.792-2.082,4.553-3.342,7.604-3.342c5.57,0,10.074,4.552,10.074,10.171V101.403z
		 M345.871,46.141c-1.114,0-2.082,0.291-2.905,0.92c-0.921,0.581-1.647,1.404-2.228,2.324c-1.162,1.55-1.744,3.39-1.986,4.068v9.202
		c0,1.404-1.211,2.567-2.664,2.567c-1.404,0-2.567-1.162-2.567-2.567V43.575c0-1.405,1.162-2.519,2.567-2.519
		c1.453,0,2.664,1.114,2.664,2.519v0.339c0.291-0.339,0.678-0.727,1.017-0.969c1.598-1.065,3.68-1.937,6.102-1.889
		c1.453,0,2.567,1.114,2.567,2.519C348.439,44.931,347.324,46.141,345.871,46.141z"/>
	<path class="st2" d="M260.145,84.937c-1.744,0-3.39,0.678-4.505,1.985c-1.162,1.211-1.84,2.954-1.84,4.988
		c0,1.986,0.678,3.73,1.84,4.988c1.114,1.211,2.761,1.889,4.505,1.889c1.695,0,3.342-0.678,4.504-1.889
		c1.162-1.259,1.889-3.002,1.889-4.988c0-2.034-0.727-3.778-1.889-4.988C263.487,85.615,261.84,84.937,260.145,84.937z"/>
</g>
</svg>
